<mxfile host="app.diagrams.net" agent="Mozilla/5.0 (Macintosh; Intel Mac OS X 10_15_7) AppleWebKit/605.1.15 (KHTML, like Gecko) Version/18.2 Safari/605.1.15" version="26.0.10">
  <diagram name="Page-1" id="b5b7bab2-c9e2-2cf4-8b2a-24fd1a2a6d21">
    <mxGraphModel dx="1889" dy="821" grid="1" gridSize="10" guides="1" tooltips="1" connect="1" arrows="1" fold="1" page="1" pageScale="1" pageWidth="827" pageHeight="1169" background="none" math="0" shadow="0">
      <root>
        <mxCell id="0" />
        <mxCell id="1" parent="0" />
        <mxCell id="6e0c8c40b5770093-72" value="" style="shape=folder;fontStyle=1;spacingTop=10;tabWidth=194;tabHeight=22;tabPosition=left;html=1;rounded=0;shadow=0;comic=0;labelBackgroundColor=none;strokeWidth=1;fillColor=none;fontFamily=Verdana;fontSize=10;align=center;" parent="1" vertex="1">
          <mxGeometry x="326.5" y="114.5" width="1001" height="940" as="geometry" />
        </mxCell>
        <mxCell id="6e0c8c40b5770093-30" value="" style="group" parent="1" vertex="1" connectable="0">
          <mxGeometry x="1060" y="316.5" width="230" height="480" as="geometry" />
        </mxCell>
        <mxCell id="6e0c8c40b5770093-24" value="" style="group" parent="6e0c8c40b5770093-30" vertex="1" connectable="0">
          <mxGeometry width="230" height="480" as="geometry" />
        </mxCell>
        <mxCell id="6e0c8c40b5770093-25" value="" style="shape=folder;fontStyle=1;spacingTop=10;tabWidth=123;tabHeight=24;tabPosition=left;html=1;rounded=0;shadow=0;comic=0;labelBackgroundColor=none;strokeWidth=1;fontFamily=Verdana;fontSize=10;align=center;" parent="6e0c8c40b5770093-24" vertex="1">
          <mxGeometry width="230" height="480" as="geometry" />
        </mxCell>
        <mxCell id="6e0c8c40b5770093-31" value="Teams Bot App Installation" style="shape=folder;fontStyle=1;spacingTop=10;tabWidth=50;tabHeight=17;tabPosition=left;html=1;rounded=0;shadow=0;comic=0;labelBackgroundColor=none;strokeWidth=1;fontFamily=Verdana;fontSize=10;align=center;" parent="6e0c8c40b5770093-24" vertex="1">
          <mxGeometry x="24.5" y="185.5" width="171" height="95" as="geometry" />
        </mxCell>
        <mxCell id="tFA88a-dqJ_RSz7yB5XD-7" value="Trucentive Teams Node App&lt;div&gt;(Heroku: trucentive-teams-bot-prod)&lt;/div&gt;" style="text;html=1;align=center;verticalAlign=middle;whiteSpace=wrap;rounded=0;" vertex="1" parent="6e0c8c40b5770093-24">
          <mxGeometry x="20" y="35.5" width="200" height="30" as="geometry" />
        </mxCell>
        <mxCell id="tFA88a-dqJ_RSz7yB5XD-8" value="Heroku Postgres" style="shape=cylinder3;whiteSpace=wrap;html=1;boundedLbl=1;backgroundOutline=1;size=15;" vertex="1" parent="6e0c8c40b5770093-24">
          <mxGeometry x="80" y="330.5" width="60" height="80" as="geometry" />
        </mxCell>
        <mxCell id="tFA88a-dqJ_RSz7yB5XD-10" value="Teams Bot Messaging" style="shape=folder;fontStyle=1;spacingTop=10;tabWidth=50;tabHeight=17;tabPosition=left;html=1;rounded=0;shadow=0;comic=0;labelBackgroundColor=none;strokeWidth=1;fontFamily=Verdana;fontSize=10;align=center;" vertex="1" parent="6e0c8c40b5770093-24">
          <mxGeometry x="24.5" y="73.5" width="171" height="95" as="geometry" />
        </mxCell>
        <mxCell id="tFA88a-dqJ_RSz7yB5XD-11" value="" style="endArrow=classic;startArrow=classic;html=1;rounded=0;entryX=0.5;entryY=1;entryDx=0;entryDy=0;entryPerimeter=0;" edge="1" parent="6e0c8c40b5770093-24" source="tFA88a-dqJ_RSz7yB5XD-8" target="6e0c8c40b5770093-31">
          <mxGeometry width="50" height="50" relative="1" as="geometry">
            <mxPoint x="-20" y="173.5" as="sourcePoint" />
            <mxPoint x="30" y="123.5" as="targetPoint" />
          </mxGeometry>
        </mxCell>
        <mxCell id="6e0c8c40b5770093-33" value="" style="shape=folder;fontStyle=1;spacingTop=10;tabWidth=123;tabHeight=24;tabPosition=left;html=1;rounded=0;shadow=0;comic=0;labelBackgroundColor=none;strokeColor=#000000;strokeWidth=1;fillColor=#ffffff;fontFamily=Verdana;fontSize=10;fontColor=#000000;align=center;" parent="1" vertex="1">
          <mxGeometry x="440.5" y="310" width="515" height="490" as="geometry" />
        </mxCell>
        <mxCell id="6e0c8c40b5770093-43" value="TruCentive User Authentication" style="shape=folder;fontStyle=1;spacingTop=10;tabWidth=50;tabHeight=17;tabPosition=left;html=1;rounded=0;shadow=0;comic=0;labelBackgroundColor=none;strokeColor=#000000;strokeWidth=1;fillColor=#ffffff;fontFamily=Verdana;fontSize=10;fontColor=#000000;align=center;" parent="1" vertex="1">
          <mxGeometry x="483.5" y="450" width="206.5" height="90" as="geometry" />
        </mxCell>
        <mxCell id="6e0c8c40b5770093-45" value="TruCentive Incentive Creation" style="shape=folder;fontStyle=1;spacingTop=10;tabWidth=50;tabHeight=17;tabPosition=left;html=1;rounded=0;shadow=0;comic=0;labelBackgroundColor=none;strokeColor=#000000;strokeWidth=1;fillColor=#ffffff;fontFamily=Verdana;fontSize=10;fontColor=#000000;align=center;" parent="1" vertex="1">
          <mxGeometry x="732" y="450" width="190" height="90" as="geometry" />
        </mxCell>
        <mxCell id="6e0c8c40b5770093-73" value="Heroku Common Runtime (PAAS)" style="text;html=1;align=left;verticalAlign=top;spacingTop=-4;fontSize=10;fontFamily=Verdana" parent="1" vertex="1">
          <mxGeometry x="327.5" y="114.5" width="130" height="20" as="geometry" />
        </mxCell>
        <mxCell id="tFA88a-dqJ_RSz7yB5XD-1" value="Internet" style="ellipse;shape=cloud;whiteSpace=wrap;html=1;" vertex="1" parent="1">
          <mxGeometry x="-10" y="190" width="280" height="180" as="geometry" />
        </mxCell>
        <mxCell id="tFA88a-dqJ_RSz7yB5XD-2" value="" style="verticalLabelPosition=bottom;sketch=0;aspect=fixed;html=1;verticalAlign=top;strokeColor=none;align=center;outlineConnect=0;shape=mxgraph.citrix.browser;" vertex="1" parent="1">
          <mxGeometry x="70" y="404" width="47.5" height="72.5" as="geometry" />
        </mxCell>
        <mxCell id="tFA88a-dqJ_RSz7yB5XD-3" value="" style="sketch=0;pointerEvents=1;shadow=0;dashed=0;html=1;strokeColor=none;fillColor=#DF8C42;labelPosition=center;verticalLabelPosition=bottom;verticalAlign=top;align=center;outlineConnect=0;shape=mxgraph.veeam2.microsoft_teams;" vertex="1" parent="1">
          <mxGeometry x="160" y="409.25" width="50" height="60" as="geometry" />
        </mxCell>
        <mxCell id="tFA88a-dqJ_RSz7yB5XD-4" value="Microsoft Graph API" style="rounded=1;whiteSpace=wrap;html=1;" vertex="1" parent="1">
          <mxGeometry x="1380" y="244.5" width="250" height="145.5" as="geometry" />
        </mxCell>
        <mxCell id="tFA88a-dqJ_RSz7yB5XD-5" value="" style="endArrow=classic;startArrow=classic;html=1;rounded=0;exitX=0;exitY=0;exitDx=0;exitDy=0;" edge="1" parent="1" source="tFA88a-dqJ_RSz7yB5XD-4" target="tFA88a-dqJ_RSz7yB5XD-3">
          <mxGeometry width="50" height="50" relative="1" as="geometry">
            <mxPoint x="1440" y="530" as="sourcePoint" />
            <mxPoint x="1360" y="50" as="targetPoint" />
            <Array as="points">
              <mxPoint x="1380" y="60" />
              <mxPoint x="680" y="60" />
              <mxPoint x="190" y="60" />
            </Array>
          </mxGeometry>
        </mxCell>
        <mxCell id="tFA88a-dqJ_RSz7yB5XD-6" value="" style="endArrow=classic;startArrow=classic;html=1;rounded=0;entryX=0.25;entryY=0;entryDx=0;entryDy=0;" edge="1" parent="1" source="tFA88a-dqJ_RSz7yB5XD-2" target="tFA88a-dqJ_RSz7yB5XD-4">
          <mxGeometry width="50" height="50" relative="1" as="geometry">
            <mxPoint x="350" y="350" as="sourcePoint" />
            <mxPoint x="400" y="300" as="targetPoint" />
            <Array as="points">
              <mxPoint x="100" y="30" />
              <mxPoint x="750" y="30" />
              <mxPoint x="1443" y="30" />
            </Array>
          </mxGeometry>
        </mxCell>
        <mxCell id="tFA88a-dqJ_RSz7yB5XD-12" value="" style="endArrow=classic;startArrow=classic;html=1;rounded=0;exitX=0;exitY=0;exitDx=171;exitDy=56;exitPerimeter=0;entryX=0;entryY=1;entryDx=0;entryDy=0;" edge="1" parent="1" source="6e0c8c40b5770093-31" target="tFA88a-dqJ_RSz7yB5XD-4">
          <mxGeometry width="50" height="50" relative="1" as="geometry">
            <mxPoint x="1040" y="490" as="sourcePoint" />
            <mxPoint x="1090" y="440" as="targetPoint" />
            <Array as="points">
              <mxPoint x="1380" y="558" />
            </Array>
          </mxGeometry>
        </mxCell>
        <mxCell id="tFA88a-dqJ_RSz7yB5XD-13" value="" style="endArrow=classic;startArrow=classic;html=1;rounded=0;exitX=0;exitY=0;exitDx=171;exitDy=56;exitPerimeter=0;entryX=0.25;entryY=1;entryDx=0;entryDy=0;" edge="1" parent="1" source="tFA88a-dqJ_RSz7yB5XD-10" target="tFA88a-dqJ_RSz7yB5XD-4">
          <mxGeometry width="50" height="50" relative="1" as="geometry">
            <mxPoint x="1260" y="490" as="sourcePoint" />
            <mxPoint x="1310" y="440" as="targetPoint" />
            <Array as="points">
              <mxPoint x="1443" y="446" />
            </Array>
          </mxGeometry>
        </mxCell>
        <mxCell id="tFA88a-dqJ_RSz7yB5XD-14" value="TruCentive Core App&lt;div&gt;(Heroku: serene-brook-48852)&lt;/div&gt;" style="text;html=1;align=center;verticalAlign=middle;whiteSpace=wrap;rounded=0;" vertex="1" parent="1">
          <mxGeometry x="553.5" y="360" width="260" height="30" as="geometry" />
        </mxCell>
        <mxCell id="tFA88a-dqJ_RSz7yB5XD-16" value="Heroku Postgres" style="shape=cylinder3;whiteSpace=wrap;html=1;boundedLbl=1;backgroundOutline=1;size=15;" vertex="1" parent="1">
          <mxGeometry x="760" y="650" width="60" height="80" as="geometry" />
        </mxCell>
        <mxCell id="tFA88a-dqJ_RSz7yB5XD-17" value="Heroku Redis" style="shape=cylinder3;whiteSpace=wrap;html=1;boundedLbl=1;backgroundOutline=1;size=15;" vertex="1" parent="1">
          <mxGeometry x="554" y="650" width="60" height="80" as="geometry" />
        </mxCell>
        <mxCell id="tFA88a-dqJ_RSz7yB5XD-18" value="" style="endArrow=classic;startArrow=classic;html=1;rounded=0;entryX=0;entryY=0;entryDx=0;entryDy=251.5;entryPerimeter=0;" edge="1" parent="1" source="tFA88a-dqJ_RSz7yB5XD-2" target="6e0c8c40b5770093-72">
          <mxGeometry width="50" height="50" relative="1" as="geometry">
            <mxPoint x="580" y="400" as="sourcePoint" />
            <mxPoint x="630" y="350" as="targetPoint" />
            <Array as="points">
              <mxPoint x="130" y="310" />
              <mxPoint x="270" y="310" />
              <mxPoint x="270" y="366" />
            </Array>
          </mxGeometry>
        </mxCell>
        <mxCell id="tFA88a-dqJ_RSz7yB5XD-20" value="" style="endArrow=classic;startArrow=classic;html=1;rounded=0;exitX=0.999;exitY=0.512;exitDx=0;exitDy=0;exitPerimeter=0;entryX=0.017;entryY=0.503;entryDx=0;entryDy=0;entryPerimeter=0;" edge="1" parent="1" source="6e0c8c40b5770093-33" target="6e0c8c40b5770093-25">
          <mxGeometry width="50" height="50" relative="1" as="geometry">
            <mxPoint x="1000" y="590" as="sourcePoint" />
            <mxPoint x="1050" y="540" as="targetPoint" />
          </mxGeometry>
        </mxCell>
        <mxCell id="tFA88a-dqJ_RSz7yB5XD-24" value="" style="endArrow=classic;startArrow=classic;html=1;rounded=0;exitX=0.5;exitY=0;exitDx=0;exitDy=0;exitPerimeter=0;entryX=0.25;entryY=1;entryDx=0;entryDy=0;entryPerimeter=0;" edge="1" parent="1" source="tFA88a-dqJ_RSz7yB5XD-16" target="6e0c8c40b5770093-45">
          <mxGeometry width="50" height="50" relative="1" as="geometry">
            <mxPoint x="630" y="570" as="sourcePoint" />
            <mxPoint x="680" y="520" as="targetPoint" />
          </mxGeometry>
        </mxCell>
        <mxCell id="tFA88a-dqJ_RSz7yB5XD-26" value="" style="endArrow=classic;startArrow=classic;html=1;rounded=0;exitX=0.5;exitY=0;exitDx=0;exitDy=0;exitPerimeter=0;entryX=0.75;entryY=1;entryDx=0;entryDy=0;entryPerimeter=0;" edge="1" parent="1" source="tFA88a-dqJ_RSz7yB5XD-16" target="6e0c8c40b5770093-43">
          <mxGeometry width="50" height="50" relative="1" as="geometry">
            <mxPoint x="630" y="570" as="sourcePoint" />
            <mxPoint x="680" y="520" as="targetPoint" />
            <Array as="points">
              <mxPoint x="760" y="570" />
              <mxPoint x="638" y="570" />
            </Array>
          </mxGeometry>
        </mxCell>
        <mxCell id="tFA88a-dqJ_RSz7yB5XD-27" value="" style="verticalLabelPosition=bottom;aspect=fixed;html=1;shape=mxgraph.salesforce.heroku2;" vertex="1" parent="1">
          <mxGeometry x="398" y="160" width="60" height="60" as="geometry" />
        </mxCell>
        <mxCell id="tFA88a-dqJ_RSz7yB5XD-28" value="TruCentive Architecture" style="text;strokeColor=none;fillColor=none;html=1;fontSize=24;fontStyle=1;verticalAlign=middle;align=center;" vertex="1" parent="1">
          <mxGeometry x="777" y="60" width="100" height="40" as="geometry" />
        </mxCell>
        <mxCell id="tFA88a-dqJ_RSz7yB5XD-29" value="Updated 2/3/2025" style="text;html=1;align=center;verticalAlign=middle;whiteSpace=wrap;rounded=0;" vertex="1" parent="1">
          <mxGeometry x="760.5" y="90" width="133" height="30" as="geometry" />
        </mxCell>
      </root>
    </mxGraphModel>
  </diagram>
</mxfile>
